<svg xmlns="http://www.w3.org/2000/svg" viewBox="0 0 300 120" fill="none" role="img" aria-label="GitWand logo">
  <!-- signal wave -->
  <path d="M 10,58 L 22,58 L 26,42 L 30,74 L 34,52 L 38,58 L 52,58"
        stroke="#7C3AED" stroke-width="2" stroke-linecap="round" stroke-linejoin="round"/>
  <circle cx="72" cy="58" r="3.5" fill="#7C3AED"/>
  <line x1="52" y1="58" x2="112" y2="58" stroke="#7C3AED" stroke-width="1.5"/>
  <text x="72" y="78" font-family="'Courier New','Lucida Console',monospace"
        font-size="10" font-weight="700" fill="#7C3AED" text-anchor="middle">&lt;/&gt;</text>
  <!-- cube back wall (transparent) -->
  <path d="M 171,60 L 161,42.7 L 141,42.7 L 131,60 L 141,77.3 L 161,77.3 Z" fill="none"/>
  <!-- top face -->
  <path d="M 111,60 L 131,25.4 L 171,25.4 L 191,60 L 171,60 L 161,42.7 L 141,42.7 L 131,60 Z" fill="#8B5CF6"/>
  <!-- lower-right -->
  <path d="M 191,60 L 171,94.6 L 161,77.3 L 171,60 Z" fill="#4C1D95"/>
  <!-- lower-left -->
  <path d="M 111,60 L 131,60 L 141,77.3 L 131,94.6 Z" fill="#6D28D9"/>
  <!-- bottom -->
  <path d="M 131,94.6 L 171,94.6 L 161,77.3 L 141,77.3 Z" fill="#5B21B6"/>
  <!-- green line + dots -->
  <line x1="191" y1="60" x2="288" y2="60" stroke="#10B981" stroke-width="1.5"/>
  <circle cx="214" cy="60" r="4.5" fill="#10B981"/>
  <circle cx="248" cy="60" r="4.5" fill="#10B981"/>
  <circle cx="282" cy="60" r="4.5" fill="#10B981"/>
</svg>
